HIERARCHY
ROOT Hips
{
    OFFSET 0.0 0.0 0.0
    CHANNELS 6 Xposition Yposition Zposition Zrotation Xrotation Yrotation
    JOINT LeftHipJoint
    {
        OFFSET 0.1 0.0 0.0
        CHANNELS 3 Zrotation Xrotation Yrotation
        JOINT LeftUpLeg
        {
            OFFSET 118.5487407266966 0.0 0.0
            CHANNELS 3 Zrotation Xrotation Yrotation
            JOINT LeftLeg
            {
                OFFSET 0.0 0.0 -400.8919164705812
                CHANNELS 3 Zrotation Xrotation Yrotation
                JOINT LeftFoot
                {
                    OFFSET 0.0 0.0 -393.90234936821884
                    CHANNELS 3 Zrotation Xrotation Yrotation
                    End Site
                    {
                        OFFSET 0.0 -0.1 0.0
                    }
                }
            }
        }
    }
    JOINT LowerBack
    {
        OFFSET 0.0 0.0 0.1
        CHANNELS 3 Zrotation Xrotation Yrotation
        JOINT Spine
        {
            OFFSET 0.0 0.0 219.02219264893986
            CHANNELS 3 Zrotation Xrotation Yrotation
            JOINT Spine1
            {
                OFFSET 0.0 0.0 253.2838655199106
                CHANNELS 3 Zrotation Xrotation Yrotation
                JOINT LeftShoulder
                {
                    OFFSET 0.1 0.0 0.0
                    CHANNELS 3 Zrotation Xrotation Yrotation
                    JOINT LeftArm
                    {
                        OFFSET 143.35724669423655 0.0 0.0
                        CHANNELS 3 Zrotation Xrotation Yrotation
                        JOINT LeftForeArm
                        {
                            OFFSET 256.7589107371844 0.0 0.0
                            CHANNELS 3 Zrotation Xrotation Yrotation
                            JOINT LeftHand
                            {
                                OFFSET 248.70846886702506 0.0 0.0
                                CHANNELS 3 Zrotation Xrotation Yrotation
                                End Site
                                {
                                    OFFSET 0.1 0.0 0.0
                                }
                            }
                        }
                    }
                }
                JOINT Neck
                {
                    OFFSET 0.0 0.0 0.1
                    CHANNELS 3 Zrotation Xrotation Yrotation
                    JOINT Neck1
                    {
                        OFFSET 0.0 0.0 107.46142605000237
                        CHANNELS 3 Zrotation Xrotation Yrotation
                        End Site
                        {
                            OFFSET 0.0 0.0 117.41291062220516
                        }
                    }
                }
                JOINT RightShoulder
                {
                    OFFSET -0.1 0.0 0.0
                    CHANNELS 3 Zrotation Xrotation Yrotation
                    JOINT RightArm
                    {
                        OFFSET -143.35724669423655 0.0 0.0
                        CHANNELS 3 Zrotation Xrotation Yrotation
                        JOINT RightForeArm
                        {
                            OFFSET -256.7589107371844 0.0 0.0
                            CHANNELS 3 Zrotation Xrotation Yrotation
                            JOINT RightHand
                            {
                                OFFSET -248.70846886702506 0.0 0.0
                                CHANNELS 3 Zrotation Xrotation Yrotation
                                End Site
                                {
                                    OFFSET -0.1 0.0 0.0
                                }
                            }
                        }
                    }
                }
            }
        }
    }
    JOINT RightHipJoint
    {
        OFFSET -0.1 0.0 0.0
        CHANNELS 3 Zrotation Xrotation Yrotation
        JOINT RightUpLeg
        {
            OFFSET -118.5487407266966 0.0 0.0
            CHANNELS 3 Zrotation Xrotation Yrotation
            JOINT RightLeg
            {
                OFFSET 0.0 0.0 -400.8919164705812
                CHANNELS 3 Zrotation Xrotation Yrotation
                JOINT RightFoot
                {
                    OFFSET 0.0 0.0 -393.90234936821884
                    CHANNELS 3 Zrotation Xrotation Yrotation
                    End Site
                    {
                        OFFSET 0.0 -0.1 0.0
                    }
                }
            }
        }
    }
}
MOTION
Frames: 5
Frame Time: 0.03333333333333333
0.0 0.0 799.5673850714135 25.308732431397143 2.378250185696084 6.727636104330302 0.0 0.0 2.2363275104040355e-16 -1.173674818968064 -18.668814741741606 -3.2688949113485943 0.2224981664412134 29.346250407393654 0.042273602046548606 3.1805546814635164e-15 -1.1034765745125397e-32 -3.9756933518293955e-16 0.0 0.0 2.2363275104040355e-16 -0.3043020750481314 -5.000547826054422 -4.182537878577593 2.1506467238360165 6.9748908612420655e-16 8.631787535475203e-17 0.0 0.0 -9.93923337957349e-17 -34.935565986173124 14.642508309850927 81.93290856174829 -16.556081481716408 -7.939885477459364e-15 -6.177136453624305e-15 0.0 0.0 -1.3169484227934877e-15 0.0 0.0 -9.93923337957349e-17 -3.1484409212366615 -5.050707770399973 -0.37761132234307615 0.0 0.0 -9.93923337957349e-17 14.882884223493088 13.191948974675144 -69.6455511793995 44.85815412631196 2.2393855285335426e-15 -1.1246875900343525e-14 0.0 0.0 -3.1805546814635168e-15 0.0 0.0 2.2363275104040355e-16 -0.7881060978337926 -12.748319637487956 -5.009216432497513 -0.7252922057397243 26.635731705716527 -0.035975328137057415 0.0 0.0 3.975693351829396e-16
0.0 0.0 799.5673850714135 25.295882941658533 2.405571233112806 6.7191714969885465 0.0 0.0 2.981770013872047e-16 -1.1640506466586593 -18.70132216446791 -3.2903032541114556 0.1914677622831472 29.516669943414403 0.059464762742867 0.0 0.0 0.0 0.0 0.0 2.981770013872047e-16 -0.30410985100572185 -5.047980684843248 -4.20155362040123 2.1102168055016453 -4.913867538063502e-16 3.0727753379313653e-16 0.0 0.0 0.0 -35.68268299388779 14.64597690646672 81.8784157237551 -16.823440007505745 2.4484366503882405e-15 5.18477812782948e-15 -1.5902773407317584e-15 1.5902773407317584e-15 -2.1866313435061676e-15 0.0 0.0 0.0 -3.0683515479765564 -4.9915675991037 -0.446709744555065 0.0 0.0 0.0 14.699118363277602 13.000510932931315 -68.97904974751945 46.528693711043246 5.02494446388206e-15 1.1687804859911589e-14 0.0 0.0 -2.3854160110976376e-15 0.0 0.0 2.981770013872047e-16 -0.780456653672891 -12.753222390724313 -4.9972516773039874 -0.7385972729965068 26.678814949903614 -0.07866474574792227 0.0 0.0 0.0
0.0 0.0 799.5673850714135 25.247045302760345 2.4420154080095817 6.738870972140007 0.0 0.0 4.969616689786745e-17 -1.1557182240642536 -18.72398441259819 -3.3643019187389935 0.1332006212055896 29.62788108663275 0.11899544748831342 0.0 0.0 0.0 0.0 0.0 4.969616689786745e-17 -0.3038352993047361 -5.085993250716624 -4.23025970086339 2.0386442548984776 4.4189027729247645e-16 -3.0608648506956304e-16 0.0 0.0 0.0 -36.72933707860315 14.735418421646933 81.7039666953063 -17.3649799868766 -1.2114676422087091e-14 5.5902808713878166e-15 0.0 0.0 2.9817700138720468e-15 0.0 0.0 0.0 -2.9770539624802392 -4.913919063114999 -0.6005715160815855 0.0 0.0 0.0 14.340532787483065 12.65631450504542 -68.21396738474861 48.52531609414405 5.714231417383742e-16 -1.421239027147354e-14 0.0 0.0 1.1927080055488188e-15 0.0 0.0 4.969616689786745e-17 -0.7778420476279501 -12.81547959969862 -5.050475853475254 -0.7786555969526008 26.644965799040992 -0.09347448218838342 0.0 0.0 -3.975693351829396e-16
0.0 0.0 799.5673850714135 25.098903634917452 2.5180411123365922 6.719879658111888 0.0 0.0 -1.2424041724466862e-16 -1.1470152693821907 -18.813625610362585 -3.3868419964549106 0.09564003820040444 29.625521015398988 0.21694104827558405 0.0 0.0 -7.951386703658792e-16 0.0 0.0 -1.2424041724466862e-16 -0.3050756259094152 -5.171691110190154 -4.254544464235468 1.8738485309532795 3.8613955647204865e-16 -7.021542452026839e-16 3.4483642953516864e-34 -3.9756933518293955e-16 9.939233379573489e-17 -37.90966271565677 14.971577687142704 81.57752602558158 -18.040820059714793 -6.0453791157443705e-15 -1.2633588536424532e-14 0.0 0.0 7.951386703658792e-16 3.4483642953516864e-34 -3.9756933518293955e-16 9.939233379573489e-17 -2.7427644848301393 -4.801010968729908 -0.7209713235703387 3.4483642953516864e-34 -3.9756933518293955e-16 9.939233379573489e-17 13.478857493337225 12.287169742020936 -67.26515260053968 51.307200008208554 1.3769550600403657e-15 2.8670407817833214e-15 0.0 0.0 1.987846675914698e-16 0.0 0.0 -1.2424041724466862e-16 -0.7703368214011148 -12.853598190913177 -5.069334791901314 -0.8032161308933953 26.451125665746748 -0.05767244453383471 0.0 0.0 -3.975693351829396e-16
0.0 0.0 799.5673850714135 25.03706716702178 2.5384480628759247 6.700369506490956 0.0 0.0 1.4908850069360235e-16 -1.1160298313789005 -18.953737490893495 -3.404347784579862 0.017347207950044956 29.654229000476345 0.3039817899289696 0.0 0.0 3.975693351829396e-16 0.0 0.0 1.4908850069360235e-16 -0.2974314045298186 -5.222985797061623 -4.255959571428632 1.719444349032572 -2.93669461988221e-16 3.026174076421892e-16 0.0 0.0 9.93923337957349e-17 -37.97862968088004 14.970023379690138 81.07816165309642 -18.804927056158068 3.342781118843045e-15 9.016192073931328e-15 0.0 0.0 3.1805546814635176e-15 0.0 0.0 9.93923337957349e-17 -2.5733780422399035 -4.63638742816178 -0.8081334977334822 0.0 0.0 9.93923337957349e-17 12.984725983523921 11.92420621051124 -66.27941500623419 53.658224946802804 -1.1418309841696007e-14 -8.481790023020967e-15 0.0 0.0 -2.9817700138720468e-15 0.0 0.0 1.4908850069360235e-16 -0.7479492538940788 -12.924735126186535 -5.124508517268971 -0.883614069798748 26.293037957529247 0.07049306562499036 -2.069018577211012e-33 1.987846675914698e-16 1.1927080055488188e-15
